<!DOCTYPE svg PUBLIC "-//W3C//DTD SVG 1.1//EN" "http://www.w3.org/Graphics/SVG/1.1/DTD/svg11.dtd">
<!-- Uploaded to: SVG Repo, www.svgrepo.com, Transformed by: SVG Repo Mixer Tools -->
<svg fill="#c1c9c9" width="800px" height="800px" viewBox="0 0 512 512" data-name="Layer 1" id="Layer_1" xmlns="http://www.w3.org/2000/svg" transform="rotate(0)matrix(-1, 0, 0, 1, 0, 0)">
<g id="SVGRepo_bgCarrier" stroke-width="0"/>
<g id="SVGRepo_tracerCarrier" stroke-linecap="round" stroke-linejoin="round"/>
<g id="SVGRepo_iconCarrier">
<path d="M413,99a221.83,221.83,0,0,0-313-.76V49H70v105H175V124h-58.4A191.8,191.8,0,0,1,256,63.92c105.91,0,192.08,86.17,192.08,192.08S361.91,448.08,256,448.08,63.92,361.91,63.92,256H34A222,222,0,0,0,413,413a222,222,0,0,0,0-314Z"/>
</g>
</svg>